<svg width="53" height="53" viewBox="0 0 53 53" fill="none" xmlns="http://www.w3.org/2000/svg">
<path d="M23.7731 11.0079C23.8501 11.0848 23.9112 11.1761 23.9528 11.2767C23.9945 11.3772 24.016 11.485 24.016 11.5938C24.016 11.7026 23.9945 11.8104 23.9528 11.9109C23.9112 12.0114 23.8501 12.1028 23.7731 12.1797L10.2808 25.6719L44.7184 25.6719C44.9381 25.6719 45.1487 25.7591 45.304 25.9145C45.4593 26.0698 45.5466 26.2804 45.5466 26.5C45.5466 26.7197 45.4593 26.9303 45.304 27.0856C45.1487 27.2409 44.9381 27.3282 44.7184 27.3282L10.2808 27.3282L23.7731 40.8204C23.85 40.8973 23.911 40.9887 23.9527 41.0892C23.9943 41.1897 24.0158 41.2975 24.0158 41.4063C24.0158 41.5151 23.9943 41.6228 23.9527 41.7234C23.911 41.8239 23.85 41.9152 23.7731 41.9922C23.6961 42.0691 23.6048 42.1302 23.5043 42.1718C23.4037 42.2134 23.296 42.2349 23.1872 42.2349C23.0784 42.2349 22.9706 42.2134 22.8701 42.1718C22.7696 42.1302 22.6782 42.0691 22.6013 41.9922L7.69503 27.0859C7.61803 27.009 7.55695 26.9177 7.51527 26.8172C7.4736 26.7166 7.45215 26.6089 7.45215 26.5C7.45215 26.3912 7.4736 26.2834 7.51527 26.1829C7.55695 26.0824 7.61803 25.991 7.69503 25.9141L22.6013 11.0079C22.6782 10.9309 22.7695 10.8698 22.8701 10.8281C22.9706 10.7865 23.0783 10.765 23.1872 10.765C23.296 10.765 23.4038 10.7865 23.5043 10.8281C23.6048 10.8698 23.6962 10.9309 23.7731 11.0079Z" fill="white"/>
</svg>
