<svg width="36" height="32" viewBox="0 0 36 32" fill="none" xmlns="http://www.w3.org/2000/svg">
<path d="M18.0664 31.6706L16.582 30.3292C13.386 27.41 10.7422 24.9105 8.65074 22.8307C6.55924 20.751 4.90836 18.918 3.69811 17.3317C2.48786 15.7455 1.64252 14.3087 1.16207 13.0214C0.681629 11.7341 0.441406 10.441 0.441406 9.14197C0.441406 6.65097 1.28741 4.55947 2.97941 2.86747C4.67141 1.17547 6.76291 0.329468 9.25391 0.329468C10.9772 0.329468 12.5929 0.770092 14.1008 1.65134C15.6087 2.53259 16.9306 3.814 18.0664 5.49555C19.2022 3.814 20.5241 2.53259 22.032 1.65134C23.5399 0.770092 25.1556 0.329468 26.8789 0.329468C29.3699 0.329468 31.4614 1.17547 33.1534 2.86747C34.8454 4.55947 35.6914 6.65097 35.6914 9.14197C35.6914 10.4423 35.4512 11.7348 34.9707 13.0195C34.4903 14.3041 33.6449 15.7415 32.4347 17.3317C31.2244 18.9219 29.5794 20.7549 27.4997 22.8307C25.4199 24.9065 22.7697 27.4067 19.5489 30.3311L18.0664 31.6706ZM18.0664 29.019C21.1997 26.186 23.7782 23.7603 25.8018 21.7419C27.8254 19.7235 29.4247 17.9708 30.5997 16.4838C31.7747 14.9967 32.5907 13.6814 33.0477 12.5377C33.5046 11.3941 33.7331 10.2621 33.7331 9.14197C33.7331 7.18363 33.0803 5.55169 31.7747 4.24613C30.4692 2.94058 28.8372 2.2878 26.8789 2.2878C25.3201 2.2878 23.8813 2.73299 22.5627 3.62338C21.2441 4.51377 20.0639 5.85393 19.0221 7.64384H17.1107C16.0428 5.82912 14.856 4.48244 13.5505 3.6038C12.2449 2.72647 10.8127 2.2878 9.25391 2.2878C7.32168 2.2878 5.69627 2.94058 4.37766 4.24613C3.05905 5.55169 2.39974 7.18363 2.39974 9.14197C2.39974 10.2595 2.62821 11.3914 3.08516 12.5377C3.5421 13.684 4.35807 14.9993 5.53307 16.4838C6.70807 17.9682 8.30738 19.7144 10.331 21.7223C12.3546 23.7302 14.9331 26.1625 18.0664 29.019Z" fill="white"/>
</svg>
