<svg width="37" height="36" viewBox="0 0 37 36" fill="none" xmlns="http://www.w3.org/2000/svg">
<path d="M25.1914 36L11.6914 31.2291L2.78591 34.705C2.20991 34.9216 1.67516 34.8588 1.18166 34.5165C0.688156 34.1742 0.441406 33.6933 0.441406 33.0738V5.28663C0.441406 4.88224 0.538907 4.51193 0.733907 4.17569C0.928907 3.83945 1.21241 3.60697 1.58441 3.47823L11.6914 0L25.1914 4.77092L34.0969 1.29496C34.6729 1.07838 35.2077 1.11927 35.7012 1.41764C36.1947 1.71602 36.4414 2.16054 36.4414 2.75123V30.8883C36.4414 31.323 36.3222 31.7001 36.0837 32.0197C35.8467 32.3408 35.5272 32.5665 35.1252 32.6967L25.1914 36ZM24.0664 33.2283V6.64748L12.8164 2.68307V29.2639L24.0664 33.2283ZM26.3164 33.2283L34.1914 30.6089V3.68724L26.3164 6.64975V33.2283ZM2.69141 32.3128L10.5664 29.2639V2.68307L2.69141 5.39114V32.3128Z" fill="white"/>
</svg>
