<svg width="72" height="99" viewBox="0 0 72 99" fill="none" xmlns="http://www.w3.org/2000/svg">
<g filter="url(#filter0_d_51_552)">
<path d="M35.7917 0C18.2154 0 4 14.2154 4 31.7917C4 55.6354 35.7917 90.8333 35.7917 90.8333C35.7917 90.8333 67.5833 55.6354 67.5833 31.7917C67.5833 14.2154 53.3679 0 35.7917 0ZM35.7917 43.1458C32.7804 43.1458 29.8924 41.9496 27.7631 39.8203C25.6337 37.691 24.4375 34.803 24.4375 31.7917C24.4375 28.7804 25.6337 25.8924 27.7631 23.7631C29.8924 21.6337 32.7804 20.4375 35.7917 20.4375C38.803 20.4375 41.691 21.6337 43.8203 23.7631C45.9496 25.8924 47.1458 28.7804 47.1458 31.7917C47.1458 34.803 45.9496 37.691 43.8203 39.8203C41.691 41.9496 38.803 43.1458 35.7917 43.1458Z" fill="url(#paint0_linear_51_552)"/>
</g>
<defs>
<filter id="filter0_d_51_552" x="0" y="0" width="71.583" height="98.8334" filterUnits="userSpaceOnUse" color-interpolation-filters="sRGB">
<feFlood flood-opacity="0" result="BackgroundImageFix"/>
<feColorMatrix in="SourceAlpha" type="matrix" values="0 0 0 0 0 0 0 0 0 0 0 0 0 0 0 0 0 0 127 0" result="hardAlpha"/>
<feOffset dy="4"/>
<feGaussianBlur stdDeviation="2"/>
<feComposite in2="hardAlpha" operator="out"/>
<feColorMatrix type="matrix" values="0 0 0 0 0 0 0 0 0 0 0 0 0 0 0 0 0 0 0.25 0"/>
<feBlend mode="normal" in2="BackgroundImageFix" result="effect1_dropShadow_51_552"/>
<feBlend mode="normal" in="SourceGraphic" in2="effect1_dropShadow_51_552" result="shape"/>
</filter>
<linearGradient id="paint0_linear_51_552" x1="35.7917" y1="0" x2="35.7917" y2="90.8333" gradientUnits="userSpaceOnUse">
<stop stop-color="#DF8383"/>
<stop offset="1" stop-color="#FF7BAB"/>
</linearGradient>
</defs>
</svg>
