<svg width="38" height="38" viewBox="0 0 38 38" fill="none" xmlns="http://www.w3.org/2000/svg">
<path d="M1.69141 32.125C1.69141 29.8044 2.61328 27.5788 4.25422 25.9378C5.89516 24.2969 8.12076 23.375 10.4414 23.375H27.9414C30.2621 23.375 32.4876 24.2969 34.1286 25.9378C35.7695 27.5788 36.6914 29.8044 36.6914 32.125C36.6914 33.2853 36.2305 34.3981 35.41 35.2186C34.5895 36.0391 33.4767 36.5 32.3164 36.5H6.06641C4.90608 36.5 3.79329 36.0391 2.97281 35.2186C2.15234 34.3981 1.69141 33.2853 1.69141 32.125Z" stroke="white" stroke-width="2" stroke-linejoin="round"/>
<path d="M19.1914 14.625C22.8158 14.625 25.7539 11.6869 25.7539 8.0625C25.7539 4.43813 22.8158 1.5 19.1914 1.5C15.567 1.5 12.6289 4.43813 12.6289 8.0625C12.6289 11.6869 15.567 14.625 19.1914 14.625Z" stroke="white" stroke-width="2"/>
</svg>
