<svg width="22" height="22" viewBox="0 0 22 22" fill="none" xmlns="http://www.w3.org/2000/svg">
<path d="M21.0507 22L12.6422 13.5921C11.9708 14.1641 11.1987 14.6067 10.3259 14.92C9.45312 15.2333 8.57585 15.3899 7.69409 15.3899C5.54386 15.3899 3.72396 14.6456 2.23438 13.157C0.744792 11.6684 0 9.84909 0 7.699C0 5.5489 0.743896 3.72866 2.23169 2.23827C3.71948 0.747882 5.53849 0.00179348 7.68872 3.21988e-06C9.83895 -0.00178704 11.6598 0.742959 13.1511 2.23424C14.6425 3.72552 15.3886 5.54577 15.3895 7.69497C15.3895 8.62769 15.2244 9.53043 14.894 10.4032C14.5637 11.2759 14.1296 12.0225 13.5916 12.6428L22 21.0494L21.0507 22ZM7.69409 14.0459C9.47551 14.0459 10.9799 13.4327 12.2072 12.2064C13.4344 10.9801 14.0477 9.47582 14.0468 7.69362C14.0459 5.91143 13.4327 4.40761 12.2072 3.18218C10.9816 1.95675 9.47774 1.34359 7.69543 1.34269C5.91313 1.3418 4.40877 1.95496 3.18237 3.18218C1.95597 4.4094 1.34277 5.91322 1.34277 7.69362C1.34277 9.47403 1.95597 10.9778 3.18237 12.2051C4.40877 13.4323 5.91268 14.0468 7.69409 14.0459Z" fill="#8B8B8B"/>
</svg>
