<svg width="35" height="36" viewBox="0 0 35 36" fill="none" xmlns="http://www.w3.org/2000/svg">
<path d="M32.969 35.0677L19.9232 22.0218C18.8815 22.9093 17.6836 23.5961 16.3294 24.0823C14.9753 24.5684 13.6141 24.8114 12.2461 24.8114C8.90998 24.8114 6.08637 23.6566 3.77526 21.3468C1.46415 19.0371 0.308594 16.2142 0.308594 12.8781C0.308594 9.54198 1.46276 6.71767 3.77109 4.40517C6.07943 2.09267 8.90165 0.935034 12.2378 0.932256C15.5739 0.929478 18.3989 2.08503 20.7128 4.39892C23.0266 6.71281 24.1843 9.53712 24.1857 12.8718C24.1857 14.3191 23.9294 15.7198 23.4169 17.0739C22.9044 18.4281 22.2308 19.5864 21.3961 20.5489L34.4419 33.5927L32.969 35.0677ZM12.2461 22.726C15.01 22.726 17.344 21.7746 19.2482 19.8718C21.1523 17.9691 22.1037 15.635 22.1023 12.8698C22.101 10.1045 21.1496 7.77115 19.2482 5.86976C17.3468 3.96837 15.0135 3.01698 12.2482 3.01559C9.4829 3.0142 7.14887 3.96559 5.24609 5.86976C3.34332 7.77392 2.39193 10.1073 2.39193 12.8698C2.39193 15.6323 3.34332 17.9656 5.24609 19.8698C7.14887 21.7739 9.4822 22.7274 12.2461 22.726Z" fill="white"/>
</svg>
